# xmcd
#
# Track frame offsets:
#	180
#	13667
#	25026
#	36912
#	48180
#	61262
#	74485
#	86905
#	99996
#	112214
#	126160
#	138417
#	151754
#	164131
#	177058
#	190734
#
# Disc length: 2708 seconds
#
# Revision: 1
# Processed by: cddbd v1.5.2PL0 Copyright (c) Steve Scherf et al.
# Submitted via: audiograbber 1.83.01
#
DISCID=d80a9210
DTITLE=Various Artist - Sabor Costeno (Vol. 1)
DYEAR=1996
DGENRE=Latina
TTITLE0=La Neca
TTITLE1=La Vispera de Ano Nuevo
TTITLE2=El Aguacero
TTITLE3=El Chicharron Peluo
TTITLE4=Cigarron Colorao
TTITLE5=Ricon Tropical
TTITLE6=El Mochilero
TTITLE7=Como se Acaban Las Velas
TTITLE8=Conchita
TTITLE9=El Saino
TTITLE10=Caracoleando
TTITLE11=Cumbia Campesina
TTITLE12=La Buchaca
TTITLE13=Mayen Raye
TTITLE14=El Guayabo de mi Lola
TTITLE15=Barranquilla
EXTD=
EXTT0=
EXTT1=
EXTT2=
EXTT3=
EXTT4=
EXTT5=
EXTT6=
EXTT7=
EXTT8=
EXTT9=
EXTT10=
EXTT11=
EXTT12=
EXTT13=
EXTT14=
EXTT15=
PLAYORDER=
